<svg xmlns="http://www.w3.org/2000/svg" viewBox="0 0 800 1000" width="800" height="1000" role="img" aria-label="Cuba Copacabana">

  <defs>
    <linearGradient id="fondo" x1="0" y1="0" x2="0" y2="1">
      <stop offset="0" stop-color="#f6f0e6"/>
      <stop offset="1" stop-color="#ece2d3"/>
    </linearGradient>
    <linearGradient id="arco" x1="0" y1="0" x2="0" y2="1">
      <stop offset="0" stop-color="#fae2d7"/>
      <stop offset="1" stop-color="#f1d8c8"/>
    </linearGradient>
    <radialGradient id="halo" cx="0.5" cy="0.5" r="0.5">
      <stop offset="0" stop-color="#f3b093" stop-opacity="0.55"/>
      <stop offset="1" stop-color="#f3b093" stop-opacity="0"/>
    </radialGradient>
    <linearGradient id="podioCuerpo" x1="0" y1="0" x2="1" y2="0">
      <stop offset="0" stop-color="#cdbfa8"/>
      <stop offset="0.45" stop-color="#e6dccb"/>
      <stop offset="1" stop-color="#c7b8a0"/>
    </linearGradient>
    <linearGradient id="podioTapa" x1="0" y1="0" x2="0" y2="1">
      <stop offset="0" stop-color="#f1e9dc"/>
      <stop offset="1" stop-color="#e2d6c3"/>
    </linearGradient>
    <linearGradient id="liquido" x1="0" y1="0" x2="0" y2="1">
      <stop offset="0" stop-color="#f5baa1"/>
      <stop offset="0.55" stop-color="#f09c78"/>
      <stop offset="1" stop-color="#bb7a5e"/>
    </linearGradient>
    <linearGradient id="liquidoLado" x1="0" y1="0" x2="1" y2="0">
      <stop offset="0" stop-color="#000" stop-opacity="0.18"/>
      <stop offset="0.35" stop-color="#000" stop-opacity="0"/>
      <stop offset="0.7" stop-color="#000" stop-opacity="0"/>
      <stop offset="1" stop-color="#000" stop-opacity="0.22"/>
    </linearGradient>
    <linearGradient id="vidrio" x1="0" y1="0" x2="1" y2="0">
      <stop offset="0" stop-color="#ffffff" stop-opacity="0.75"/>
      <stop offset="0.18" stop-color="#ffffff" stop-opacity="0.25"/>
      <stop offset="0.6" stop-color="#ffffff" stop-opacity="0.08"/>
      <stop offset="0.9" stop-color="#ffffff" stop-opacity="0.4"/>
      <stop offset="1" stop-color="#ffffff" stop-opacity="0.15"/>
    </linearGradient>
    <linearGradient id="brillo" x1="0" y1="0" x2="1" y2="0">
      <stop offset="0" stop-color="#ffffff" stop-opacity="0"/>
      <stop offset="0.5" stop-color="#ffffff" stop-opacity="0.85"/>
      <stop offset="1" stop-color="#ffffff" stop-opacity="0"/>
    </linearGradient>
    <linearGradient id="tapa" x1="0" y1="0" x2="1" y2="0">
      <stop offset="0" stop-color="#7d5f27"/>
      <stop offset="0.38" stop-color="#e9d08f"/>
      <stop offset="0.7" stop-color="#b48c46"/>
      <stop offset="1" stop-color="#6a5021"/>
    </linearGradient>
    <linearGradient id="caja" x1="0" y1="0" x2="1" y2="0">
      <stop offset="0" stop-color="#141414"/>
      <stop offset="0.5" stop-color="#2c2a27"/>
      <stop offset="1" stop-color="#0d0d0d"/>
    </linearGradient>
    <filter id="sombra" x="-50%" y="-50%" width="200%" height="200%">
      <feGaussianBlur stdDeviation="10"/>
    </filter>
    <filter id="sombraSuave" x="-50%" y="-50%" width="200%" height="200%">
      <feGaussianBlur stdDeviation="22"/>
    </filter>
  </defs>

  <rect width="800" height="1000" fill="url(#fondo)"/>
  <path d="M170 792 L170 380 A230 230 0 0 1 630 380 L630 792 Z" fill="url(#arco)"/>
  <ellipse cx="400" cy="470" rx="250" ry="250" fill="url(#halo)"/>
  <rect x="140" y="792" width="520" height="208" fill="url(#podioCuerpo)"/>
  <ellipse cx="400" cy="792" rx="260" ry="40" fill="url(#podioTapa)"/>
  <ellipse cx="400" cy="792" rx="260" ry="40" fill="none" stroke="#fff" stroke-opacity="0.6" stroke-width="1.5"/>
<ellipse cx="400" cy="796" rx="194" ry="16" fill="#3b2f1f" opacity="0.28" filter="url(#sombra)"/>
<rect x="371" y="428" width="58" height="30" fill="url(#tapa)" opacity="0.75"/><circle cx="400" cy="380" r="58" fill="url(#tapa)"/>
  <ellipse cx="380" cy="358" rx="16" ry="11" fill="#ffffff" opacity="0.45"/>
  <clipPath id="c1"><path d="M230 622 A170 170 0 1 1 570 622 A170 170 0 1 1 230 622 Z"/></clipPath>
  <path d="M230 622 A170 170 0 1 1 570 622 A170 170 0 1 1 230 622 Z" fill="#ffffff" fill-opacity="0.35"/>
  <path d="M278.6245494344099 524 A156 156 0 1 0 521.3754505655901 524 Z" fill="url(#liquido)"/>
  <path d="M278.6245494344099 524 A156 156 0 1 0 521.3754505655901 524 Z" fill="url(#liquidoLado)"/>
  <g clip-path="url(#c1)">
    <path d="M230 622 A170 170 0 1 1 570 622 A170 170 0 1 1 230 622 Z" fill="url(#vidrio)"/>
  </g>
  <path d="M230 622 A170 170 0 1 1 570 622 A170 170 0 1 1 230 622 Z" fill="none" stroke="#ffffff" stroke-opacity="0.85" stroke-width="2.5"/>
  <path d="M230 622 A170 170 0 1 1 570 622 A170 170 0 1 1 230 622 Z" fill="none" stroke="#4a3d2b" stroke-opacity="0.18" stroke-width="1"/>
  <g clip-path="url(#c1)">
    <rect x="256" y="502" width="24" height="237.99999999999997" rx="12" fill="url(#brillo)" opacity="0.9"/>
  </g>


  <g>
    <rect x="292" y="596.3" width="216" height="81.5" rx="5" fill="#fbf7f0" fill-opacity="0.94"/>
    <rect x="297" y="601.3" width="206" height="71.5" rx="3" fill="none" stroke="#c5a467" stroke-width="1"/>
    <text x="400" y="620.3" text-anchor="middle" font-family="Jost, 'Segoe UI', Helvetica, Arial, sans-serif" font-size="12" letter-spacing="3.5" fill="#6b5a3e">CUBA</text>
    <text x="400" y="651.8" text-anchor="middle" font-family="'Cormorant Garamond', Georgia, 'Times New Roman', serif" font-style="italic" font-size="30.0" fill="#1f1c18">Copacabana</text>
    
  </g>
  <text x="400" y="978" text-anchor="middle" font-family="Jost, 'Segoe UI', Helvetica, Arial, sans-serif" font-size="11" letter-spacing="4" fill="#7d705c" opacity="0.7">IMAGEN ILUSTRATIVA</text>
</svg>
