<svg xmlns="http://www.w3.org/2000/svg" viewBox="0 0 800 1000" width="800" height="1000" role="img" aria-label="Dolce &amp; Gabbana Set de miniaturas">

  <defs>
    <linearGradient id="fondo" x1="0" y1="0" x2="0" y2="1">
      <stop offset="0" stop-color="#f6f0e6"/>
      <stop offset="1" stop-color="#ece2d3"/>
    </linearGradient>
    <linearGradient id="arco" x1="0" y1="0" x2="0" y2="1">
      <stop offset="0" stop-color="#eef5f9"/>
      <stop offset="1" stop-color="#e7e8e4"/>
    </linearGradient>
    <radialGradient id="halo" cx="0.5" cy="0.5" r="0.5">
      <stop offset="0" stop-color="#d1e4f0" stop-opacity="0.55"/>
      <stop offset="1" stop-color="#d1e4f0" stop-opacity="0"/>
    </radialGradient>
    <linearGradient id="podioCuerpo" x1="0" y1="0" x2="1" y2="0">
      <stop offset="0" stop-color="#cdbfa8"/>
      <stop offset="0.45" stop-color="#e6dccb"/>
      <stop offset="1" stop-color="#c7b8a0"/>
    </linearGradient>
    <linearGradient id="podioTapa" x1="0" y1="0" x2="0" y2="1">
      <stop offset="0" stop-color="#f1e9dc"/>
      <stop offset="1" stop-color="#e2d6c3"/>
    </linearGradient>
    <linearGradient id="liquido" x1="0" y1="0" x2="0" y2="1">
      <stop offset="0" stop-color="#d7e7f2"/>
      <stop offset="0.55" stop-color="#c6ddec"/>
      <stop offset="1" stop-color="#9aacb8"/>
    </linearGradient>
    <linearGradient id="liquidoLado" x1="0" y1="0" x2="1" y2="0">
      <stop offset="0" stop-color="#000" stop-opacity="0.18"/>
      <stop offset="0.35" stop-color="#000" stop-opacity="0"/>
      <stop offset="0.7" stop-color="#000" stop-opacity="0"/>
      <stop offset="1" stop-color="#000" stop-opacity="0.22"/>
    </linearGradient>
    <linearGradient id="vidrio" x1="0" y1="0" x2="1" y2="0">
      <stop offset="0" stop-color="#ffffff" stop-opacity="0.75"/>
      <stop offset="0.18" stop-color="#ffffff" stop-opacity="0.25"/>
      <stop offset="0.6" stop-color="#ffffff" stop-opacity="0.08"/>
      <stop offset="0.9" stop-color="#ffffff" stop-opacity="0.4"/>
      <stop offset="1" stop-color="#ffffff" stop-opacity="0.15"/>
    </linearGradient>
    <linearGradient id="brillo" x1="0" y1="0" x2="1" y2="0">
      <stop offset="0" stop-color="#ffffff" stop-opacity="0"/>
      <stop offset="0.5" stop-color="#ffffff" stop-opacity="0.85"/>
      <stop offset="1" stop-color="#ffffff" stop-opacity="0"/>
    </linearGradient>
    <linearGradient id="tapa" x1="0" y1="0" x2="1" y2="0">
      <stop offset="0" stop-color="#7d5f27"/>
      <stop offset="0.38" stop-color="#e9d08f"/>
      <stop offset="0.7" stop-color="#b48c46"/>
      <stop offset="1" stop-color="#6a5021"/>
    </linearGradient>
    <linearGradient id="caja" x1="0" y1="0" x2="1" y2="0">
      <stop offset="0" stop-color="#141414"/>
      <stop offset="0.5" stop-color="#2c2a27"/>
      <stop offset="1" stop-color="#0d0d0d"/>
    </linearGradient>
    <filter id="sombra" x="-50%" y="-50%" width="200%" height="200%">
      <feGaussianBlur stdDeviation="10"/>
    </filter>
    <filter id="sombraSuave" x="-50%" y="-50%" width="200%" height="200%">
      <feGaussianBlur stdDeviation="22"/>
    </filter>
  </defs>

  <rect width="800" height="1000" fill="url(#fondo)"/>
  <path d="M170 792 L170 380 A230 230 0 0 1 630 380 L630 792 Z" fill="url(#arco)"/>
  <ellipse cx="400" cy="470" rx="250" ry="250" fill="url(#halo)"/>
  <rect x="140" y="792" width="520" height="208" fill="url(#podioCuerpo)"/>
  <ellipse cx="400" cy="792" rx="260" ry="40" fill="url(#podioTapa)"/>
  <ellipse cx="400" cy="792" rx="260" ry="40" fill="none" stroke="#fff" stroke-opacity="0.6" stroke-width="1.5"/>


  <linearGradient id="mini0" x1="0" y1="0" x2="0" y2="1">
    <stop offset="0" stop-color="#d7e7f2"/>
    <stop offset="1" stop-color="#9eb1bd"/>
  </linearGradient>
  <clipPath id="clip0"><path d="M194 562 H246 Q258 562 258 574 V780 Q258 792 246 792 H194 Q182 792 182 780 V574 Q182 562 194 562 Z"/></clipPath>
  <ellipse cx="220" cy="794" rx="48" ry="8" fill="#3b2f1f" opacity="0.25" filter="url(#sombra)"/>
  <rect x="204.8" y="548" width="30.400000000000002" height="16" fill="url(#tapa)" opacity="0.8"/>
  <rect x="194.16" y="504" width="51.68000000000001" height="46" rx="6" fill="url(#tapa)"/>
  <path d="M194 562 H246 Q258 562 258 574 V780 Q258 792 246 792 H194 Q182 792 182 780 V574 Q182 562 194 562 Z" fill="#ffffff" fill-opacity="0.35"/>
  <path d="M196 584 H244 Q252 584 252 592 V778 Q252 786 244 786 H196 Q188 786 188 778 V592 Q188 584 196 584 Z" fill="url(#mini0)"/>
  <g clip-path="url(#clip0)"><path d="M194 562 H246 Q258 562 258 574 V780 Q258 792 246 792 H194 Q182 792 182 780 V574 Q182 562 194 562 Z" fill="url(#vidrio)"/>
    <rect x="188" y="570" width="9.12" height="214" rx="4" fill="url(#brillo)" opacity="0.8"/></g>
  <path d="M194 562 H246 Q258 562 258 574 V780 Q258 792 246 792 H194 Q182 792 182 780 V574 Q182 562 194 562 Z" fill="none" stroke="#ffffff" stroke-opacity="0.85" stroke-width="2"/>
  <path d="M194 562 H246 Q258 562 258 574 V780 Q258 792 246 792 H194 Q182 792 182 780 V574 Q182 562 194 562 Z" fill="none" stroke="#4a3d2b" stroke-opacity="0.18" stroke-width="1"/>
  <linearGradient id="mini1" x1="0" y1="0" x2="0" y2="1">
    <stop offset="0" stop-color="#e2bd87"/>
    <stop offset="1" stop-color="#ab8142"/>
  </linearGradient>
  <clipPath id="clip1"><path d="M284 522 H336 Q348 522 348 534 V780 Q348 792 336 792 H284 Q272 792 272 780 V534 Q272 522 284 522 Z"/></clipPath>
  <ellipse cx="310" cy="794" rx="48" ry="8" fill="#3b2f1f" opacity="0.25" filter="url(#sombra)"/>
  <rect x="294.8" y="508" width="30.400000000000002" height="16" fill="url(#tapa)" opacity="0.8"/>
  <rect x="284.15999999999997" y="464" width="51.68000000000001" height="46" rx="6" fill="url(#tapa)"/>
  <path d="M284 522 H336 Q348 522 348 534 V780 Q348 792 336 792 H284 Q272 792 272 780 V534 Q272 522 284 522 Z" fill="#ffffff" fill-opacity="0.35"/>
  <path d="M286 544 H334 Q342 544 342 552 V778 Q342 786 334 786 H286 Q278 786 278 778 V552 Q278 544 286 544 Z" fill="url(#mini1)"/>
  <g clip-path="url(#clip1)"><path d="M284 522 H336 Q348 522 348 534 V780 Q348 792 336 792 H284 Q272 792 272 780 V534 Q272 522 284 522 Z" fill="url(#vidrio)"/>
    <rect x="278" y="530" width="9.12" height="254" rx="4" fill="url(#brillo)" opacity="0.8"/></g>
  <path d="M284 522 H336 Q348 522 348 534 V780 Q348 792 336 792 H284 Q272 792 272 780 V534 Q272 522 284 522 Z" fill="none" stroke="#ffffff" stroke-opacity="0.85" stroke-width="2"/>
  <path d="M284 522 H336 Q348 522 348 534 V780 Q348 792 336 792 H284 Q272 792 272 780 V534 Q272 522 284 522 Z" fill="none" stroke="#4a3d2b" stroke-opacity="0.18" stroke-width="1"/>
  <linearGradient id="mini2" x1="0" y1="0" x2="0" y2="1">
    <stop offset="0" stop-color="#f5cad5"/>
    <stop offset="1" stop-color="#c08f9c"/>
  </linearGradient>
  <clipPath id="clip2"><path d="M374 542 H426 Q438 542 438 554 V780 Q438 792 426 792 H374 Q362 792 362 780 V554 Q362 542 374 542 Z"/></clipPath>
  <ellipse cx="400" cy="794" rx="48" ry="8" fill="#3b2f1f" opacity="0.25" filter="url(#sombra)"/>
  <rect x="384.8" y="528" width="30.400000000000002" height="16" fill="url(#tapa)" opacity="0.8"/>
  <rect x="374.15999999999997" y="484" width="51.68000000000001" height="46" rx="6" fill="url(#tapa)"/>
  <path d="M374 542 H426 Q438 542 438 554 V780 Q438 792 426 792 H374 Q362 792 362 780 V554 Q362 542 374 542 Z" fill="#ffffff" fill-opacity="0.35"/>
  <path d="M376 564 H424 Q432 564 432 572 V778 Q432 786 424 786 H376 Q368 786 368 778 V572 Q368 564 376 564 Z" fill="url(#mini2)"/>
  <g clip-path="url(#clip2)"><path d="M374 542 H426 Q438 542 438 554 V780 Q438 792 426 792 H374 Q362 792 362 780 V554 Q362 542 374 542 Z" fill="url(#vidrio)"/>
    <rect x="368" y="550" width="9.12" height="234" rx="4" fill="url(#brillo)" opacity="0.8"/></g>
  <path d="M374 542 H426 Q438 542 438 554 V780 Q438 792 426 792 H374 Q362 792 362 780 V554 Q362 542 374 542 Z" fill="none" stroke="#ffffff" stroke-opacity="0.85" stroke-width="2"/>
  <path d="M374 542 H426 Q438 542 438 554 V780 Q438 792 426 792 H374 Q362 792 362 780 V554 Q362 542 374 542 Z" fill="none" stroke="#4a3d2b" stroke-opacity="0.18" stroke-width="1"/>
  <linearGradient id="mini3" x1="0" y1="0" x2="0" y2="1">
    <stop offset="0" stop-color="#6b6b6b"/>
    <stop offset="1" stop-color="#222222"/>
  </linearGradient>
  <clipPath id="clip3"><path d="M464 507 H516 Q528 507 528 519 V780 Q528 792 516 792 H464 Q452 792 452 780 V519 Q452 507 464 507 Z"/></clipPath>
  <ellipse cx="490" cy="794" rx="48" ry="8" fill="#3b2f1f" opacity="0.25" filter="url(#sombra)"/>
  <rect x="474.8" y="493" width="30.400000000000002" height="16" fill="url(#tapa)" opacity="0.8"/>
  <rect x="464.15999999999997" y="449" width="51.68000000000001" height="46" rx="6" fill="url(#tapa)"/>
  <path d="M464 507 H516 Q528 507 528 519 V780 Q528 792 516 792 H464 Q452 792 452 780 V519 Q452 507 464 507 Z" fill="#ffffff" fill-opacity="0.35"/>
  <path d="M466 529 H514 Q522 529 522 537 V778 Q522 786 514 786 H466 Q458 786 458 778 V537 Q458 529 466 529 Z" fill="url(#mini3)"/>
  <g clip-path="url(#clip3)"><path d="M464 507 H516 Q528 507 528 519 V780 Q528 792 516 792 H464 Q452 792 452 780 V519 Q452 507 464 507 Z" fill="url(#vidrio)"/>
    <rect x="458" y="515" width="9.12" height="269" rx="4" fill="url(#brillo)" opacity="0.8"/></g>
  <path d="M464 507 H516 Q528 507 528 519 V780 Q528 792 516 792 H464 Q452 792 452 780 V519 Q452 507 464 507 Z" fill="none" stroke="#ffffff" stroke-opacity="0.85" stroke-width="2"/>
  <path d="M464 507 H516 Q528 507 528 519 V780 Q528 792 516 792 H464 Q452 792 452 780 V519 Q452 507 464 507 Z" fill="none" stroke="#4a3d2b" stroke-opacity="0.18" stroke-width="1"/>
  <linearGradient id="mini4" x1="0" y1="0" x2="0" y2="1">
    <stop offset="0" stop-color="#f0e4c8"/>
    <stop offset="1" stop-color="#baad8d"/>
  </linearGradient>
  <clipPath id="clip4"><path d="M554 552 H606 Q618 552 618 564 V780 Q618 792 606 792 H554 Q542 792 542 780 V564 Q542 552 554 552 Z"/></clipPath>
  <ellipse cx="580" cy="794" rx="48" ry="8" fill="#3b2f1f" opacity="0.25" filter="url(#sombra)"/>
  <rect x="564.8" y="538" width="30.400000000000002" height="16" fill="url(#tapa)" opacity="0.8"/>
  <rect x="554.16" y="494" width="51.68000000000001" height="46" rx="6" fill="url(#tapa)"/>
  <path d="M554 552 H606 Q618 552 618 564 V780 Q618 792 606 792 H554 Q542 792 542 780 V564 Q542 552 554 552 Z" fill="#ffffff" fill-opacity="0.35"/>
  <path d="M556 574 H604 Q612 574 612 582 V778 Q612 786 604 786 H556 Q548 786 548 778 V582 Q548 574 556 574 Z" fill="url(#mini4)"/>
  <g clip-path="url(#clip4)"><path d="M554 552 H606 Q618 552 618 564 V780 Q618 792 606 792 H554 Q542 792 542 780 V564 Q542 552 554 552 Z" fill="url(#vidrio)"/>
    <rect x="548" y="560" width="9.12" height="224" rx="4" fill="url(#brillo)" opacity="0.8"/></g>
  <path d="M554 552 H606 Q618 552 618 564 V780 Q618 792 606 792 H554 Q542 792 542 780 V564 Q542 552 554 552 Z" fill="none" stroke="#ffffff" stroke-opacity="0.85" stroke-width="2"/>
  <path d="M554 552 H606 Q618 552 618 564 V780 Q618 792 606 792 H554 Q542 792 542 780 V564 Q542 552 554 552 Z" fill="none" stroke="#4a3d2b" stroke-opacity="0.18" stroke-width="1"/>


  <text x="400" y="864" text-anchor="middle" font-family="Jost, 'Segoe UI', Helvetica, Arial, sans-serif" font-size="13" letter-spacing="4" fill="#6b5a3e">DOLCE &amp; GABBANA</text>
  <text x="400" y="900" text-anchor="middle" font-family="'Cormorant Garamond', Georgia, 'Times New Roman', serif" font-style="italic" font-size="28" fill="#3a3024">Set de miniaturas</text>
  <text x="400" y="978" text-anchor="middle" font-family="Jost, 'Segoe UI', Helvetica, Arial, sans-serif" font-size="11" letter-spacing="4" fill="#7d705c" opacity="0.7">IMAGEN ILUSTRATIVA</text>
</svg>
